<mxfile host="app.diagrams.net" modified="2022-11-22T12:42:03.931Z" agent="5.0 (Windows NT 10.0; Win64; x64) AppleWebKit/537.36 (KHTML, like Gecko) Chrome/93.0.4577.63 Safari/537.36" etag="LGKP59FLn24UoGvlZr16" version="20.5.3" type="github">
  <diagram id="OjHsW1VkBC_b1xAoWCQG" name="第 1 页">
    <mxGraphModel dx="981" dy="526" grid="1" gridSize="10" guides="1" tooltips="1" connect="1" arrows="1" fold="1" page="1" pageScale="1" pageWidth="827" pageHeight="1169" math="0" shadow="0">
      <root>
        <mxCell id="0" />
        <mxCell id="1" parent="0" />
        <mxCell id="EpiTRXS7mV49OHjbr8Te-5" value="" style="shape=document;whiteSpace=wrap;html=1;boundedLbl=1;size=0.17647058823529413;" vertex="1" parent="1">
          <mxGeometry x="360" y="130" width="300" height="120" as="geometry" />
        </mxCell>
        <mxCell id="EpiTRXS7mV49OHjbr8Te-6" style="edgeStyle=orthogonalEdgeStyle;rounded=0;orthogonalLoop=1;jettySize=auto;html=1;exitX=1;exitY=0.5;exitDx=0;exitDy=0;entryX=0;entryY=0.5;entryDx=0;entryDy=0;" edge="1" parent="1" source="EpiTRXS7mV49OHjbr8Te-1" target="EpiTRXS7mV49OHjbr8Te-2">
          <mxGeometry relative="1" as="geometry" />
        </mxCell>
        <mxCell id="EpiTRXS7mV49OHjbr8Te-1" value="第三方库&lt;br&gt;原始IO逻辑" style="rounded=0;whiteSpace=wrap;html=1;dashed=1;" vertex="1" parent="1">
          <mxGeometry x="382.5" y="170" width="120" height="40" as="geometry" />
        </mxCell>
        <mxCell id="EpiTRXS7mV49OHjbr8Te-2" value="移植框架函数调用" style="rounded=0;whiteSpace=wrap;html=1;" vertex="1" parent="1">
          <mxGeometry x="517.5" y="170" width="120" height="40" as="geometry" />
        </mxCell>
        <mxCell id="EpiTRXS7mV49OHjbr8Te-7" value="第三方库" style="text;html=1;strokeColor=none;fillColor=none;align=center;verticalAlign=middle;whiteSpace=wrap;rounded=0;dashed=1;" vertex="1" parent="1">
          <mxGeometry x="360" y="130" width="60" height="30" as="geometry" />
        </mxCell>
        <mxCell id="EpiTRXS7mV49OHjbr8Te-8" value="" style="shape=document;whiteSpace=wrap;html=1;boundedLbl=1;size=0.17647058823529413;rotation=-180;" vertex="1" parent="1">
          <mxGeometry x="360" y="260" width="300" height="120" as="geometry" />
        </mxCell>
        <mxCell id="EpiTRXS7mV49OHjbr8Te-9" value="移植框架" style="text;html=1;strokeColor=none;fillColor=none;align=center;verticalAlign=middle;whiteSpace=wrap;rounded=0;" vertex="1" parent="1">
          <mxGeometry x="360" y="350" width="60" height="30" as="geometry" />
        </mxCell>
        <mxCell id="EpiTRXS7mV49OHjbr8Te-10" value="fs_wrapper" style="ellipse;whiteSpace=wrap;html=1;" vertex="1" parent="1">
          <mxGeometry x="370" y="300" width="100" height="40" as="geometry" />
        </mxCell>
        <mxCell id="EpiTRXS7mV49OHjbr8Te-11" value="fs_operation" style="ellipse;whiteSpace=wrap;html=1;dashed=1;dashPattern=1 2;" vertex="1" parent="1">
          <mxGeometry x="460" y="330" width="100" height="40" as="geometry" />
        </mxCell>
        <mxCell id="EpiTRXS7mV49OHjbr8Te-12" value="fs_ipc_handling" style="ellipse;whiteSpace=wrap;html=1;" vertex="1" parent="1">
          <mxGeometry x="550" y="300" width="100" height="40" as="geometry" />
        </mxCell>
      </root>
    </mxGraphModel>
  </diagram>
</mxfile>
